<svg width="24" height="24" viewBox="0 0 24 24" fill="none" xmlns="http://www.w3.org/2000/svg">
<g clip-path="url(#clip0_16_197)">
<path d="M14.515 4.99999L17.121 2.39299C17.2139 2.30001 17.3241 2.22625 17.4455 2.17593C17.5669 2.1256 17.6971 2.0997 17.8285 2.0997C17.9599 2.0997 18.09 2.1256 18.2114 2.17593C18.3328 2.22625 18.4431 2.30001 18.536 2.39299L22.778 6.63599C22.9655 6.82352 23.0708 7.07782 23.0708 7.34299C23.0708 7.60815 22.9655 7.86246 22.778 8.04999L19 11.828V21C19 21.2652 18.8946 21.5196 18.7071 21.7071C18.5196 21.8946 18.2652 22 18 22H5.99999C5.73477 22 5.48042 21.8946 5.29288 21.7071C5.10534 21.5196 4.99999 21.2652 4.99999 21V11.828L1.22199 8.04999C1.03451 7.86246 0.929199 7.60815 0.929199 7.34299C0.929199 7.07782 1.03451 6.82352 1.22199 6.63599L5.46399 2.39299C5.55686 2.30001 5.66715 2.22625 5.78855 2.17593C5.90994 2.1256 6.04007 2.0997 6.17149 2.0997C6.3029 2.0997 6.43303 2.1256 6.55443 2.17593C6.67582 2.22625 6.78611 2.30001 6.87899 2.39299L9.48499 4.99999H14.515ZM15.343 6.99999H8.65699L6.17199 4.51499L3.34299 7.34299L6.99999 11V20H17V11L20.657 7.34299L17.828 4.51499L15.343 6.99999Z" fill="#09121F"/>
</g>
<defs>
<clipPath id="clip0_16_197">
<rect width="24" height="24" fill="white"/>
</clipPath>
</defs>
</svg>
