<svg width="454" height="197" viewBox="0 0 454 197" fill="none" xmlns="http://www.w3.org/2000/svg">
<path d="M168.001 11.1414C168.06 11.266 168.123 11.3803 168.187 11.4839C154.647 12.444 133.331 15.0602 112.308 19.8738C90.8846 24.7791 69.6663 31.9877 57.3323 42.1192C42.0494 54.673 29.7355 65.3426 21.0372 75.2051C12.34 85.0666 7.20285 94.1811 6.36908 103.631C5.05818 118.487 2.5467 158.235 1.45513 176.246L1.4292 176.674L1.83868 176.801C27.1695 184.637 93.3256 199.319 155.424 195.384C207.643 192.074 222.874 191.629 224.854 191.572L224.887 191.571C267.752 193.205 365.851 194.397 414.722 190.47C426.985 189.485 435.525 187.347 441.346 184.591C447.172 181.831 450.304 178.437 451.678 174.937C453.05 171.441 452.635 167.93 451.545 165.003C450.457 162.082 448.681 159.694 447.25 158.406C446.82 158.019 446.094 157.684 445.194 157.378C444.273 157.065 443.098 156.758 441.706 156.458C438.92 155.856 435.221 155.268 430.866 154.7C422.152 153.564 410.766 152.502 398.699 151.567C374.877 149.721 348.369 148.367 334.449 147.912C334.792 134.415 334.5 113.76 332.522 94.9421C331.519 85.4072 330.083 76.3275 328.07 68.8835C326.066 61.4695 323.464 55.5691 320.062 52.5068C315.902 48.7632 308.161 44.3338 298.364 39.8024C288.551 35.2633 276.625 30.5992 264.054 26.3977C239.158 18.0762 211.66 11.545 193.015 11.428C192.82 8.982 192.382 5.96341 190.147 3.92656C188.948 2.83376 187.209 2.10998 185.271 1.71283C183.324 1.31404 181.131 1.23495 178.976 1.46883C176.822 1.70265 174.686 2.25154 172.86 3.12453C171.037 3.99598 169.489 5.20698 168.565 6.78343C167.399 8.77473 167.551 10.194 168.001 11.1414Z" fill="#201D1D" stroke="#453B3D" stroke-width="1.09174"/>
<path d="M334.981 147.348C327.703 161.177 281.595 190.363 258.013 192.11" stroke="#453B3D" stroke-width="1.09174"/>
<path d="M386.839 168.091C406.49 159.903 355.36 155.9 327.339 156.628C323.518 160.995 311.691 168.637 308.779 170.821C322.972 171.548 367.335 176.218 386.839 168.091Z" stroke="#453B3D" stroke-width="1.09174" stroke-dasharray="2.18 2.18"/>
<path d="M401.031 169.729C428.821 159.412 366.642 153.043 330.47 153.043C325.184 159.921 307.348 170.657 303.321 174.096C322.955 175.242 373.241 180.045 401.031 169.729Z" stroke="#453B3D" stroke-width="1.09174" stroke-dasharray="2.18 2.18"/>
<path d="M417.953 169.729C445.743 154.827 369.235 151.493 330.47 153.148C318.059 166.454 302.435 172.404 298.408 177.371C318.042 179.027 390.163 184.63 417.953 169.729Z" stroke="#453B3D" stroke-width="1.09174" stroke-dasharray="2.18 2.18"/>
<path d="M167.945 11.4263C148.839 18.5226 112.921 37.5189 106.807 58.9171C99.1647 85.6647 86.064 158.811 88.2475 193.747" stroke="#453B3D" stroke-width="1.09174"/>
<path d="M159.211 12.5181C140.105 19.6144 109.342 37.5189 103.228 58.9171C95.5859 85.6647 82.243 157.72 84.4264 192.655" stroke="#453B3D" stroke-width="1.09174" stroke-dasharray="2.18 2.18"/>
<path d="M167.399 11.4263C148.293 18.5226 116.984 38.6107 110.87 60.0088C103.228 86.7565 89.8851 158.811 92.0686 193.747" stroke="#453B3D" stroke-width="1.09174" stroke-dasharray="2.18 2.18"/>
<path d="M193.055 11.4263C210.523 16.5211 241.419 32.9336 244.912 55.6418C249.279 84.0271 247.096 115.688 247.096 129.334C247.096 140.252 251.463 177.553 253.1 191.018" stroke="#453B3D" stroke-width="1.09174"/>
<path d="M192.509 11.4263C209.977 16.5211 237.052 35.1171 240.545 57.8253C244.912 86.2106 242.729 117.871 242.729 131.518C242.729 142.435 246.55 177.553 248.188 191.018" stroke="#453B3D" stroke-width="1.09174" stroke-dasharray="2.18 2.18"/>
<path d="M200.697 11.9722C218.165 17.067 246.878 32.9337 250.371 55.6419C254.738 84.0271 252.555 115.688 252.555 129.334C252.555 140.252 255.83 177.553 257.467 191.018" stroke="#453B3D" stroke-width="1.09174" stroke-dasharray="2.18 2.18"/>
</svg>
