<svg width="655" height="549" viewBox="0 0 655 549" fill="none" xmlns="http://www.w3.org/2000/svg">
<path fill-rule="evenodd" clip-rule="evenodd" d="M654 500.231L607 527.231C599.167 515.898 581.4 490.931 573 481.731C562.5 470.231 494 360.231 480 322.231L481.5 505.231H480.5V547.731H331H324H174.5V505.231H173.5L175 322.231C161 360.231 92.5 470.231 82 481.731C73.6 490.931 55.8333 515.898 48 527.231L1 500.231C6.5 480.398 18.1 440.731 20.5 440.731C33.7 400.331 127.333 208.898 172.5 118.231V116.231L175 112.731C180.6 102.331 213 85.7314 228.5 78.7314C228.333 76.8981 228.1 72.6314 228.5 70.2314C228.743 68.7709 230.29 65.0587 231.814 61.4026C233.42 57.549 235 53.7578 235 52.7314C235 51.1315 233.333 48.0648 232.5 46.7314C233.5 44.5648 235.9 39.3314 237.5 35.7314C239.1 32.1314 240.5 25.5648 241 22.7314C264.058 3.83147 306.197 0.410556 327.5 1.07598C348.803 0.410541 390.942 3.83143 414 22.7314C414.5 25.5648 415.9 32.1314 417.5 35.7314C419.1 39.3314 421.5 44.5648 422.5 46.7314C421.667 48.0648 420 51.1314 420 52.7314C420 53.7578 421.58 57.549 423.186 61.4026C424.71 65.0587 426.257 68.7709 426.5 70.2314C426.9 72.6314 426.667 76.8981 426.5 78.7314C442 85.7314 474.4 102.331 480 112.731L482.5 116.231V118.231C527.667 208.898 621.3 400.331 634.5 440.731C636.9 440.731 648.5 480.398 654 500.231Z" fill="#201D1D"/>
<path d="M607 527.231L606.589 527.516L606.85 527.894L607.249 527.665L607 527.231ZM654 500.231L654.249 500.665L654.586 500.472L654.482 500.098L654 500.231ZM573 481.731L572.631 482.069L573 481.731ZM480 322.231L480.469 322.059L479.5 322.236L480 322.231ZM481.5 505.231V505.731H482.004L482 505.227L481.5 505.231ZM480.5 505.231V504.731H480V505.231H480.5ZM480.5 547.731V548.231H481V547.731H480.5ZM174.5 547.731H174V548.231H174.5V547.731ZM174.5 505.231H175V504.731H174.5V505.231ZM173.5 505.231L173 505.227L172.996 505.731H173.5V505.231ZM175 322.231L175.5 322.236L174.531 322.059L175 322.231ZM82 481.731L81.6308 481.394L82 481.731ZM48 527.231L47.7509 527.665L48.1498 527.894L48.4113 527.516L48 527.231ZM1 500.231L0.518183 500.098L0.414499 500.472L0.750938 500.665L1 500.231ZM20.5 440.731V441.231H20.8626L20.9753 440.887L20.5 440.731ZM172.5 118.231L172.948 118.454L173 118.349V118.231H172.5ZM172.5 116.231L172.093 115.941L172 116.071V116.231H172.5ZM175 112.731L175.407 113.022L175.425 112.996L175.44 112.968L175 112.731ZM228.5 78.7314L228.706 79.1871L229.03 79.0406L228.998 78.6862L228.5 78.7314ZM228.5 70.2314L228.007 70.1492L228.5 70.2314ZM231.814 61.4026L232.276 61.5949L231.814 61.4026ZM232.5 46.7314L232.046 46.5219L231.933 46.7673L232.076 46.9964L232.5 46.7314ZM237.5 35.7314L237.957 35.9345L237.5 35.7314ZM241 22.7314L240.683 22.3448L240.54 22.4622L240.508 22.6446L241 22.7314ZM327.5 1.07598L327.484 1.57574L327.5 1.57623L327.516 1.57574L327.5 1.07598ZM414 22.7314L414.492 22.6446L414.46 22.4622L414.317 22.3447L414 22.7314ZM417.5 35.7314L417.043 35.9345L417.5 35.7314ZM422.5 46.7314L422.924 46.9964L423.067 46.7673L422.954 46.5219L422.5 46.7314ZM423.186 61.4026L423.647 61.2103L423.186 61.4026ZM426.5 70.2314L426.993 70.1492V70.1492L426.5 70.2314ZM426.5 78.7314L426.002 78.6862L425.97 79.0406L426.294 79.1871L426.5 78.7314ZM480 112.731L479.56 112.968L479.575 112.996L479.593 113.022L480 112.731ZM482.5 116.231H483V116.071L482.907 115.941L482.5 116.231ZM482.5 118.231H482V118.349L482.052 118.454L482.5 118.231ZM634.5 440.731L634.025 440.887L634.137 441.231H634.5V440.731ZM607.249 527.665L654.249 500.665L653.751 499.798L606.751 526.798L607.249 527.665ZM572.631 482.069C581.003 491.238 598.749 516.174 606.589 527.516L607.411 526.947C599.584 515.623 581.797 490.625 573.369 481.394L572.631 482.069ZM479.531 322.404C486.55 341.456 507.201 378.497 527.384 412.176C537.48 429.024 547.467 445.045 555.588 457.574C563.696 470.083 569.971 479.156 572.631 482.069L573.369 481.394C570.779 478.557 564.554 469.567 556.427 457.03C548.314 444.512 538.333 428.501 528.241 411.662C508.049 377.966 487.45 341.007 480.469 322.059L479.531 322.404ZM482 505.227L480.5 322.227L479.5 322.236L481 505.236L482 505.227ZM480.5 505.731H481.5V504.731H480.5V505.731ZM481 547.731V505.231H480V547.731H481ZM331 548.231H480.5V547.231H331V548.231ZM331 547.231H324V548.231H331V547.231ZM324 547.231H174.5V548.231H324V547.231ZM175 547.731V505.231H174V547.731H175ZM174.5 504.731H173.5V505.731H174.5V504.731ZM174 505.236L175.5 322.236L174.5 322.227L173 505.227L174 505.236ZM174.531 322.059C167.55 341.007 146.951 377.966 126.759 411.662C116.667 428.501 106.686 444.512 98.5726 457.03C90.4464 469.567 84.2214 478.557 81.6308 481.394L82.3692 482.069C85.0286 479.156 91.3036 470.083 99.4118 457.574C107.533 445.045 117.52 429.024 127.616 412.176C147.799 378.497 168.45 341.456 175.469 322.404L174.531 322.059ZM81.6308 481.394C73.2031 490.625 55.4159 515.623 47.5887 526.947L48.4113 527.516C56.2508 516.174 73.9969 491.238 82.3692 482.069L81.6308 481.394ZM48.2491 526.798L1.24906 499.798L0.750938 500.665L47.7509 527.665L48.2491 526.798ZM1.48182 500.365C4.23099 490.451 8.50436 475.582 12.3896 463.194C14.3326 456.998 16.1762 451.43 17.6822 447.415C18.436 445.405 19.1004 443.797 19.6465 442.697C19.9208 442.144 20.1559 441.739 20.3481 441.479C20.4449 441.348 20.5176 441.272 20.5651 441.233C20.6206 441.187 20.5936 441.231 20.5 441.231V440.231C20.2564 440.231 20.0614 440.353 19.932 440.459C19.7944 440.571 19.6651 440.72 19.5437 440.885C19.2997 441.215 19.0341 441.682 18.7508 442.252C18.1816 443.399 17.503 445.045 16.7459 447.064C15.23 451.105 13.3799 456.694 11.4354 462.894C7.54564 475.297 3.26901 490.178 0.518183 500.098L1.48182 500.365ZM20.9753 440.887C27.5625 420.726 54.2517 362.805 84.9636 298.547C115.666 234.309 150.365 163.786 172.948 118.454L172.052 118.008C149.468 163.343 114.767 233.871 84.0614 298.116C53.365 362.341 26.6375 420.337 20.0247 440.576L20.9753 440.887ZM173 118.231V116.231H172V118.231H173ZM172.907 116.522L175.407 113.022L174.593 112.441L172.093 115.941L172.907 116.522ZM175.44 112.968C176.786 110.468 179.787 107.535 183.847 104.412C187.892 101.301 192.932 98.0444 198.291 94.8873C209.009 88.5736 220.968 82.6818 228.706 79.1871L228.294 78.2758C220.532 81.7811 208.541 87.6893 197.784 94.0256C192.406 97.1935 187.327 100.474 183.237 103.619C179.163 106.753 176.014 109.794 174.56 112.494L175.44 112.968ZM228.998 78.6862C228.831 76.8502 228.605 72.6427 228.993 70.3136L228.007 70.1492C227.595 72.6202 227.836 76.946 228.002 78.7767L228.998 78.6862ZM228.993 70.3136C229.105 69.6432 229.531 68.3991 230.143 66.8211C230.748 65.2605 231.513 63.4246 232.276 61.5949L231.353 61.2103C230.591 63.0366 229.821 64.885 229.211 66.4596C228.607 68.0169 228.138 69.3591 228.007 70.1492L228.993 70.3136ZM232.276 61.5949C233.078 59.6703 233.877 57.7516 234.476 56.1854C234.776 55.4025 235.028 54.7003 235.206 54.1251C235.377 53.5707 235.5 53.0735 235.5 52.7314H234.5C234.5 52.9025 234.425 53.2641 234.25 53.8296C234.082 54.3743 233.839 55.0532 233.542 55.8282C232.95 57.3776 232.156 59.2812 231.353 61.2103L232.276 61.5949ZM235.5 52.7314C235.5 52.2562 235.378 51.7077 235.203 51.1552C235.026 50.5959 234.783 50.0009 234.517 49.4227C233.986 48.2666 233.35 47.1478 232.924 46.4664L232.076 46.9964C232.484 47.6484 233.098 48.7296 233.608 49.8402C233.863 50.3954 234.089 50.9503 234.25 51.4577C234.413 51.9719 234.5 52.4067 234.5 52.7314H235.5ZM232.954 46.941C233.954 44.7739 236.355 39.5379 237.957 35.9345L237.043 35.5284C235.445 39.125 233.046 44.3557 232.046 46.5219L232.954 46.941ZM237.957 35.9345C239.584 32.2726 240.993 25.6509 241.492 22.8183L240.508 22.6446C240.007 25.4787 238.616 31.9903 237.043 35.5284L237.957 35.9345ZM241.317 23.1181C252.752 13.7449 268.957 8.18563 285.004 5.05745C301.041 1.93119 316.864 1.24399 327.484 1.57574L327.516 0.576225C316.833 0.242549 300.935 0.933095 284.812 4.07593C268.7 7.21684 252.306 12.818 240.683 22.3448L241.317 23.1181ZM414.317 22.3447C402.694 12.818 386.3 7.21682 370.188 4.07591C354.065 0.933079 338.167 0.242542 327.484 0.576225L327.516 1.57574C338.136 1.24398 353.959 1.93117 369.996 5.05743C386.043 8.18561 402.248 13.7449 413.683 23.1181L414.317 22.3447ZM417.957 35.5284C416.384 31.9903 414.993 25.4787 414.492 22.6446L413.508 22.8183C414.007 25.6509 415.416 32.2726 417.043 35.9345L417.957 35.5284ZM422.954 46.5219C421.954 44.3557 419.555 39.125 417.957 35.5284L417.043 35.9345C418.645 39.5379 421.046 44.7739 422.046 46.941L422.954 46.5219ZM420.5 52.7314C420.5 52.4067 420.587 51.9718 420.75 51.4577C420.911 50.9503 421.137 50.3954 421.392 49.8402C421.902 48.7296 422.517 47.6484 422.924 46.9964L422.076 46.4664C421.65 47.1478 421.014 48.2666 420.483 49.4227C420.217 50.0009 419.974 50.5959 419.797 51.1552C419.621 51.7077 419.5 52.2562 419.5 52.7314H420.5ZM423.647 61.2103C422.844 59.2812 422.05 57.3776 421.458 55.8282C421.161 55.0532 420.918 54.3743 420.75 53.8296C420.575 53.2641 420.5 52.9025 420.5 52.7314H419.5C419.5 53.0735 419.623 53.5707 419.794 54.1251C419.972 54.7003 420.224 55.4025 420.524 56.1854C421.123 57.7516 421.922 59.6703 422.724 61.5949L423.647 61.2103ZM426.993 70.1492C426.862 69.3591 426.393 68.0169 425.789 66.4596C425.179 64.885 424.409 63.0366 423.647 61.2103L422.724 61.5949C423.487 63.4246 424.252 65.2605 424.857 66.8211C425.469 68.3991 425.895 69.6432 426.007 70.3137L426.993 70.1492ZM426.998 78.7767C427.164 76.946 427.405 72.6202 426.993 70.1492L426.007 70.3136C426.395 72.6427 426.169 76.8502 426.002 78.6862L426.998 78.7767ZM480.44 112.494C478.986 109.794 475.837 106.753 471.763 103.619C467.673 100.474 462.594 97.1935 457.216 94.0256C446.459 87.6893 434.468 81.7811 426.706 78.2758L426.294 79.1871C434.032 82.6818 445.991 88.5736 456.709 94.8873C462.068 98.0444 467.108 101.301 471.153 104.412C475.214 107.535 478.214 110.468 479.56 112.968L480.44 112.494ZM482.907 115.941L480.407 112.441L479.593 113.022L482.093 116.522L482.907 115.941ZM483 118.231V116.231H482V118.231H483ZM634.975 440.576C628.362 420.337 601.635 362.341 570.939 298.116C540.233 233.871 505.532 163.343 482.948 118.008L482.052 118.454C504.635 163.786 539.334 234.309 570.036 298.547C600.748 362.805 627.438 420.726 634.025 440.887L634.975 440.576ZM654.482 500.098C651.731 490.178 647.454 475.297 643.565 462.894C641.62 456.694 639.77 451.105 638.254 447.064C637.497 445.045 636.818 443.399 636.249 442.252C635.966 441.682 635.7 441.215 635.456 440.885C635.335 440.72 635.206 440.571 635.068 440.459C634.939 440.353 634.744 440.231 634.5 440.231V441.231C634.406 441.231 634.379 441.187 634.435 441.233C634.482 441.272 634.555 441.348 634.652 441.479C634.844 441.739 635.079 442.144 635.354 442.697C635.9 443.797 636.564 445.405 637.318 447.415C638.824 451.43 640.667 456.998 642.61 463.194C646.496 475.582 650.769 490.451 653.518 500.365L654.482 500.098Z" fill="#453B3D"/>
<path d="M173.5 117C177.667 132.667 185.2 173.6 182 212C178.8 250.4 177 272.333 176.5 278.5V320" stroke="#453B3D"/>
<path d="M229 78C246.833 81.8333 283.3 89.9 286.5 91.5C289.7 93.1 301.833 97.1667 307.5 99" stroke="#453B3D"/>
<path d="M235.5 50C247.333 55.1667 273.2 67 282 73C290.8 79 303.667 88.5 309 92.5" stroke="#453B3D"/>
<path d="M238 35.5C243.333 41 257.2 53.7 270 60.5C286 69 306 80 309 84.5" stroke="#453B3D"/>
<path d="M309 166V89.5V83C311 78.6 313.5 81.1667 314.5 83V166H309Z" stroke="#453B3D"/>
<path d="M309 143.5H314" stroke="#453B3D"/>
<path d="M314.5 92C316.333 94.8333 320.1 100.6 320.5 101" stroke="#453B3D"/>
<path d="M328.5 100C325.833 100.333 319.3 100.8 314.5 100" stroke="#453B3D"/>
<path d="M242.5 20.5C242.167 22.1667 244.4 27.5 256 35.5C270.5 45.5 300.5 65.5 310 75.5C317.6 83.5 325.167 95.1667 328 100V44.5" stroke="#453B3D"/>
<path d="M13.5 457.5L74.5 488.5" stroke="#453B3D"/>
<path d="M328.5 13.5C307 14.8333 261.3 20.2 250.5 31" stroke="#453B3D"/>
<path d="M329.5 1V10.5" stroke="#453B3D"/>
<path d="M173.5 117C177.667 132.667 185.2 173.6 182 212C178.8 250.4 177 272.333 176.5 278.5V320" stroke="#453B3D"/>
<path d="M229 78C246.833 81.8333 283.3 89.9 286.5 91.5C289.7 93.1 301.833 97.1667 307.5 99" stroke="#453B3D"/>
<path d="M235.5 50C247.333 55.1667 273.2 67 282 73C290.8 79 303.667 88.5 309 92.5" stroke="#453B3D"/>
<path d="M238 35.5C243.333 41 257.2 53.7 270 60.5C286 69 306 80 309 84.5" stroke="#453B3D"/>
<path d="M309 166V89.5V83C311 78.6 313.5 81.1667 314.5 83V166H309Z" stroke="#453B3D"/>
<path d="M309 143.5H314" stroke="#453B3D"/>
<path d="M314.5 92C316.333 94.8333 320.1 100.6 320.5 101" stroke="#453B3D"/>
<path d="M328.5 100C325.833 100.333 319.3 100.8 314.5 100" stroke="#453B3D"/>
<path d="M242.5 20.5C242.167 22.1667 244.4 27.5 256 35.5C270.5 45.5 300.5 65.5 310 75.5C317.6 83.5 325.167 95.1667 328 100V44.5" stroke="#453B3D"/>
<path d="M13.5 457.5L74.5 488.5" stroke="#453B3D"/>
<path d="M328.5 13.5C307 14.8333 261.3 20.2 250.5 31" stroke="#453B3D"/>
<path d="M329.5 1V10.5" stroke="#453B3D"/>
<path d="M483 117C478.833 132.667 471.3 173.6 474.5 212C477.7 250.4 479.5 272.333 480 278.5V320" stroke="#453B3D"/>
<path d="M427.5 78C409.667 81.8333 373.2 89.9 370 91.5C366.8 93.1 354.667 97.1667 349 99" stroke="#453B3D"/>
<path d="M421 50C409.167 55.1667 383.3 67 374.5 73C365.7 79 352.833 88.5 347.5 92.5" stroke="#453B3D"/>
<path d="M418.5 35.5C413.167 41 399.3 53.7 386.5 60.5C370.5 69 350.5 80 347.5 84.5" stroke="#453B3D"/>
<path d="M347.5 166V89.5V83C345.5 78.6 343 81.1667 342 83V166H347.5Z" stroke="#453B3D"/>
<path d="M347.5 143.5H342.5" stroke="#453B3D"/>
<path d="M342 92C340.167 94.8333 336.4 100.6 336 101" stroke="#453B3D"/>
<path d="M328 100C330.667 100.333 337.2 100.8 342 100" stroke="#453B3D"/>
<path d="M414 20.5C414.333 22.1667 412.1 27.5 400.5 35.5C386 45.5 356 65.5 346.5 75.5C338.9 83.5 331.333 95.1667 328.5 100V44.5" stroke="#453B3D"/>
<path d="M643 457.5L582 488.5" stroke="#453B3D"/>
<path d="M328 13.5C349.5 14.8333 395.2 20.2 406 31" stroke="#453B3D"/>
<path d="M327 1V10.5" stroke="#453B3D"/>
<path d="M483 117C478.833 132.667 471.3 173.6 474.5 212C477.7 250.4 479.5 272.333 480 278.5V320" stroke="#453B3D"/>
<path d="M427.5 78C409.667 81.8333 373.2 89.9 370 91.5C366.8 93.1 354.667 97.1667 349 99" stroke="#453B3D"/>
<path d="M421 50C409.167 55.1667 383.3 67 374.5 73C365.7 79 352.833 88.5 347.5 92.5" stroke="#453B3D"/>
<path d="M418.5 35.5C413.167 41 399.3 53.7 386.5 60.5C370.5 69 350.5 80 347.5 84.5" stroke="#453B3D"/>
<path d="M347.5 166V89.5V83C345.5 78.6 343 81.1667 342 83V166H347.5Z" stroke="#453B3D"/>
<path d="M347.5 143.5H342.5" stroke="#453B3D"/>
<path d="M342 92C340.167 94.8333 336.4 100.6 336 101" stroke="#453B3D"/>
<path d="M328 100C330.667 100.333 337.2 100.8 342 100" stroke="#453B3D"/>
<path d="M414 20.5C414.333 22.1667 412.1 27.5 400.5 35.5C386 45.5 356 65.5 346.5 75.5C338.9 83.5 331.333 95.1667 328.5 100V44.5" stroke="#453B3D"/>
<path d="M643 457.5L582 488.5" stroke="#453B3D"/>
<path d="M328 13.5C349.5 14.8333 395.2 20.2 406 31" stroke="#453B3D"/>
<path d="M327 1V10.5" stroke="#453B3D"/>
</svg>
