<svg width="624" height="508" viewBox="0 0 624 508" fill="none" xmlns="http://www.w3.org/2000/svg">
<path d="M307 507.5H316.5H459.5V263.5L573.5 463.5L622.5 436L454 40L375.5 1C358.796 3.29264 322.302 7.83794 307.754 7.99578C293.475 7.83795 264.704 3.29264 248 1L169.5 40L1 436L50 463.5L164 263.5V507.5H307Z" fill="#201D1D"/>
<path d="M307 507.5H459.5M307 507.5H316.5M307 507.5H164M459.5 507.5V263.5L573.5 463.5L622.5 436L454 40L375.5 1C358.796 3.29264 322.302 7.83794 307.754 7.99578M459.5 507.5H316.5M307 8C307.244 8 307.495 7.99858 307.754 7.99578M316.5 507.5H164M164 507.5V263.5L50 463.5L1 436L169.5 40L248 1C264.704 3.29264 293.475 7.83795 307.754 7.99578M308.5 8C308.256 8 308.007 7.99858 307.754 7.99578" stroke="#3C3335"/>
<path d="M169.5 41C172.333 63 177.5 112.5 175.5 142.5C173.5 172.5 170.667 188 169.5 192L165.5 255" stroke="#403739"/>
<path d="M456 45C453.167 67 449.449 112.5 451.449 142.5C453.449 172.5 456.282 188 457.449 192L458.5 254" stroke="#403739"/>
<path d="M170.5 491.5H456" stroke="#403739"/>
<path d="M170.5 495.5H456" stroke="#403739"/>
<path d="M18 405L63.5 427.5" stroke="#403739"/>
<path d="M556 429L606.5 405" stroke="#403739"/>
<path d="M237.5 6.5C248.5 19.6667 279.2 47.8 310 47C348.5 46 375 21.5 385.5 6" stroke="#453B3D"/>
<path d="M265.5 17.5C277.333 20.5 312 24.7 358 17.5" stroke="#453B3D"/>
<path d="M296 32.6023V21H323V32C314.849 34.5314 301.604 33.657 296 32.6023Z" fill="#696969"/>
<path d="M248 1C256.333 11.8333 281.8 34.3 309 33.5C343 32.5 362.5 16.5 376 1" stroke="#453B3D"/>
</svg>
