<svg width="338" height="627" viewBox="0 0 338 627" fill="none" xmlns="http://www.w3.org/2000/svg">
<path d="M111.386 542.257C130.969 505.3 156.601 335.447 166.969 255.14C170.466 251.091 170.834 263.422 173.779 289.557C176.723 315.692 200.466 442.134 210.772 488.699C219.018 525.951 239.361 582.38 248.503 605.939V619.19L252 623.975L278.135 626H290.098L298.38 623.975H316.417V605.939C317.644 603.178 322.122 592.54 330.221 572.073C340.343 546.491 335.558 469.742 336.11 446.736C336.662 423.73 327.276 344.404 326.54 323.607C325.951 306.968 317.583 222.686 313.472 182.625C310.086 121.226 294.638 61.9494 287.337 39.9862C287.46 38.7592 287.779 34.5015 288.073 27.2868C288.368 20.072 285.619 14.3419 284.208 12.3787C264.331 5.20081 226.38 1 171.88 1C118.674 1 54.8825 12.1947 53.5941 12.3787C52.5635 12.526 48.2567 31.8266 46.2322 41.4586L48.4408 42.3788C48.3181 46.3666 45.8641 60.2316 37.0297 83.79C25.9867 113.238 5.74129 357.472 1.50815 446.736C-1.87836 518.147 12.4898 585.325 20.0972 609.988V623.975C41.4469 624.528 85.8028 625.301 92.4286 623.975C99.0544 622.65 98.7477 612.135 97.7661 607.043L99.9747 603.546C99.6679 597.227 99.2385 583.484 99.9747 579.067C100.711 574.65 107.889 552.687 111.386 542.257Z" fill="#201D1D" stroke="#453B3D"/>
<path d="M45.4959 157.41H39.9744L55.9867 63.5446H63.1646L45.4959 157.41Z" stroke="#453B3D"/>
<path d="M284.76 157.41H290.282L274.27 63.5446H267.092L284.76 157.41Z" stroke="#453B3D"/>
<path d="M155.005 96.3053V106.796H161.999V96.3053M155.005 96.3053V39.8021H161.999V96.3053M155.005 96.3053H161.999" stroke="#453B3D"/>
<path d="M180.22 96.3053V106.796H187.214V96.3053M180.22 96.3053V39.8021H187.214V96.3053M180.22 96.3053H187.214" stroke="#453B3D"/>
<path d="M47.3364 41.4586C91.5083 51.5813 201.312 65.7531 287.153 41.4586" stroke="#453B3D"/>
<path d="M58.7476 12.7468C99.5452 24.1579 200.65 40.1334 278.687 12.7468" stroke="#453B3D"/>
<path d="M117.643 23.6058C144.637 22.1947 205.03 20.2193 230.65 23.6058" stroke="#453B3D"/>
<path d="M170.282 54.8942C170.711 114.404 170.907 236.367 168.257 248.146" stroke="#453B3D"/>
<path d="M169.177 244.281C184.883 330.969 218.981 512.221 229.73 543.73C240.478 575.239 252 597.35 256.417 604.466V624.528" stroke="#453B3D"/>
<path d="M168.12 244C152.414 330.687 118.316 511.939 107.568 543.449C96.8191 574.958 85.2976 597.068 80.8804 604.185V624.246" stroke="#453B3D"/>
<path d="M255.88 605L313.88 605" stroke="#453B3D"/>
<path d="M93.8804 605H23.8804" stroke="#453B3D"/>
<path d="M313.84 624.159V606.491C319.73 588.27 331.656 543.546 332.245 510.417C332.981 469.006 317.521 248.33 314.576 225.876C311.632 203.422 297.276 65.201 287.153 43.2991" stroke="#453B3D"/>
<path d="M24.9078 624.159V606.491C19.0182 588.27 7.09178 543.546 6.50282 510.417C5.76663 469.006 21.2268 248.33 24.1716 225.876C27.1164 203.422 41.4722 65.201 51.595 43.2991" stroke="#453B3D"/>
</svg>
