<svg width="343" height="309" viewBox="0 0 343 309" fill="none" xmlns="http://www.w3.org/2000/svg">
<path d="M37.5 36.5L41 1H301.5L305 36.5L342 292.5L185 307.5L171.5 205.5L157 307.5L1 292.5L37.5 36.5Z" fill="#201D1D" stroke="#453B3D" stroke-width="0.982619"/>
<path d="M45 1.5L41 37" stroke="#453B3D" stroke-width="0.982619"/>
<path d="M50 1.5L46 37" stroke="#453B3D" stroke-width="0.982619"/>
<path d="M55 1.5L51 37" stroke="#453B3D" stroke-width="0.982619"/>
<path d="M60 1.5L56 37" stroke="#453B3D" stroke-width="0.982619"/>
<path d="M65 1.5L61 37" stroke="#453B3D" stroke-width="0.982619"/>
<path d="M70 1.5L66 37" stroke="#453B3D" stroke-width="0.982619"/>
<path d="M75 1.5L71 37" stroke="#453B3D" stroke-width="0.982619"/>
<path d="M80 1.5L76 37" stroke="#453B3D" stroke-width="0.982619"/>
<path d="M85 1.5L81 37" stroke="#453B3D" stroke-width="0.982619"/>
<path d="M90 1.5L86 37" stroke="#453B3D" stroke-width="0.982619"/>
<path d="M95 1.5L91 37" stroke="#453B3D" stroke-width="0.982619"/>
<path d="M100 1.5L96 37" stroke="#453B3D" stroke-width="0.982619"/>
<path d="M105 1.5L101 37" stroke="#453B3D" stroke-width="0.982619"/>
<path d="M110 1.5L106 37" stroke="#453B3D" stroke-width="0.982619"/>
<path d="M115 1.5L111 37" stroke="#453B3D" stroke-width="0.982619"/>
<path d="M120 1.5L116 37" stroke="#453B3D" stroke-width="0.982619"/>
<path d="M125 1.5L121 37" stroke="#453B3D" stroke-width="0.982619"/>
<path d="M130 1.5L126 37" stroke="#453B3D" stroke-width="0.982619"/>
<path d="M135 1.5L131 37" stroke="#453B3D" stroke-width="0.982619"/>
<path d="M140 1.5L136 37" stroke="#453B3D" stroke-width="0.982619"/>
<path d="M145 1.5L141 37" stroke="#453B3D" stroke-width="0.982619"/>
<path d="M150 1.5L146 37" stroke="#453B3D" stroke-width="0.982619"/>
<path d="M155 1.5L151 37" stroke="#453B3D" stroke-width="0.982619"/>
<path d="M160 1.5L156 37" stroke="#453B3D" stroke-width="0.982619"/>
<path d="M165 1.5L161 37" stroke="#453B3D" stroke-width="0.982619"/>
<path d="M170 1.5L166 37" stroke="#453B3D" stroke-width="0.982619"/>
<path d="M175 1.5L171 37" stroke="#453B3D" stroke-width="0.982619"/>
<path d="M180 1.5L176 37" stroke="#453B3D" stroke-width="0.982619"/>
<path d="M185 1.5L181 37" stroke="#453B3D" stroke-width="0.982619"/>
<path d="M190 1.5L186 37" stroke="#453B3D" stroke-width="0.982619"/>
<path d="M195 1.5L191 37" stroke="#453B3D" stroke-width="0.982619"/>
<path d="M200 1.5L196 37" stroke="#453B3D" stroke-width="0.982619"/>
<path d="M205 1.5L201 37" stroke="#453B3D" stroke-width="0.982619"/>
<path d="M210 1.5L206 37" stroke="#453B3D" stroke-width="0.982619"/>
<path d="M215 1.5L211 37" stroke="#453B3D" stroke-width="0.982619"/>
<path d="M220 1.5L216 37" stroke="#453B3D" stroke-width="0.982619"/>
<path d="M225 1.5L221 37" stroke="#453B3D" stroke-width="0.982619"/>
<path d="M230 1.5L226 37" stroke="#453B3D" stroke-width="0.982619"/>
<path d="M235 1.5L231 37" stroke="#453B3D" stroke-width="0.982619"/>
<path d="M240 1.5L236 37" stroke="#453B3D" stroke-width="0.982619"/>
<path d="M245 1.5L241 37" stroke="#453B3D" stroke-width="0.982619"/>
<path d="M250 1.5L246 37" stroke="#453B3D" stroke-width="0.982619"/>
<path d="M255 1.5L251 37" stroke="#453B3D" stroke-width="0.982619"/>
<path d="M260 1.5L256 37" stroke="#453B3D" stroke-width="0.982619"/>
<path d="M265 1.5L261 37" stroke="#453B3D" stroke-width="0.982619"/>
<path d="M270 1.5L266 37" stroke="#453B3D" stroke-width="0.982619"/>
<path d="M275 1.5L271 37" stroke="#453B3D" stroke-width="0.982619"/>
<path d="M280 1.5L276 37" stroke="#453B3D" stroke-width="0.982619"/>
<path d="M285 1.5L281 37" stroke="#453B3D" stroke-width="0.982619"/>
<path d="M290 1.5L286 37" stroke="#453B3D" stroke-width="0.982619"/>
<path d="M295 1.5L291 37" stroke="#453B3D" stroke-width="0.982619"/>
<path d="M300 1.5L296 37" stroke="#453B3D" stroke-width="0.982619"/>
<path d="M171.5 207V37" stroke="#453B3D" stroke-width="0.982619"/>
<path d="M154.5 17.5H149.5V37H154.5V17.5Z" fill="#201D1D"/>
<path d="M198 17.5H192.5V37H198V17.5Z" fill="#201D1D"/>
<path d="M38.5 37H149.5M304 37H198M154.5 37V89.5H149.5V37M154.5 37H149.5M154.5 37V17.5H149.5V37M154.5 37H192.5M198 37V89.5H192.5V37M198 37H192.5M198 37V17.5H192.5V37M35.5 152H43L55.5 53.5H48L35.5 152ZM287.5 53.5H294L306.5 152H298L287.5 53.5Z" stroke="#453B3D" stroke-width="0.982619"/>
</svg>
