<svg width="596" height="496" viewBox="0 0 596 496" fill="none" xmlns="http://www.w3.org/2000/svg">
<path d="M451 225V495.5H143.003L144.5 225.003L144.504 224.222L143.793 224.545L78.1817 254.368L0.677248 137.118L123.243 45.4427L242.056 0.513303C249.562 1.59682 261.117 3.21147 271.561 4.55839C282.042 5.91016 291.459 7 294.5 7C297.534 7 308.696 5.9119 321.366 4.55968C333.999 3.21124 348.182 1.59438 357.436 0.510955L474.253 45.4409L594.826 137.614L517.817 254.369L451.706 224.544L451 224.226V225Z" fill="#201D1D" stroke="#3D3435"/>
<path d="M142.5 475H452" stroke="#453B3D"/>
<path d="M142.5 479.5H452" stroke="#453B3D"/>
<path d="M228.5 5.5C238.167 17.6667 265.6 41.8 298 41C330.4 40.2 357.5 17 367 5.5" stroke="#453B3D"/>
<path d="M240 1C246.833 10.6667 267.9 29.9 297.5 29.5C327.1 29.1 349.167 10.3333 356.5 1" stroke="#453B3D"/>
<path d="M255.5 16C271.667 18.3333 311.5 21.6 341.5 16" stroke="#453B3D"/>
<path d="M143.5 71.5V224.5" stroke="#453B3D"/>
<path d="M106 60C118.167 77.5 142.7 120.9 143.5 154.5" stroke="#453B3D"/>
<path d="M450 71.5V224.5" stroke="#453B3D"/>
<path d="M487.5 60C475.333 77.5 450.8 120.9 450 154.5" stroke="#453B3D"/>
<path d="M10 130.5L87 249.5" stroke="#453B3D"/>
<path d="M14.5 127.5L92 248" stroke="#453B3D"/>
<path d="M587 130.5L510 249.5" stroke="#453B3D"/>
<path d="M582.5 127.5L505 248" stroke="#453B3D"/>
</svg>
